<svg xmlns="http://www.w3.org/2000/svg" viewBox="0 0 960 720" role="img" aria-label="Tile installation placeholder image">
  <defs>
    <linearGradient id="bgGradient" x1="0" x2="1" y1="0" y2="1">
      <stop offset="0%" stop-color="#cbd5f5" />
      <stop offset="100%" stop-color="#94a3d6" />
    </linearGradient>
    <pattern id="grid" width="80" height="80" patternUnits="userSpaceOnUse">
      <rect width="80" height="80" fill="none" stroke="#e2e8f0" stroke-width="4" />
    </pattern>
  </defs>
  <rect width="960" height="720" fill="url(#bgGradient)" />
  <rect width="860" height="620" x="50" y="50" fill="url(#grid)" opacity="0.55" />
  <g fill="#1e293b" opacity="0.75">
    <rect x="190" y="180" width="220" height="18" rx="9" />
    <rect x="190" y="230" width="380" height="18" rx="9" />
    <rect x="190" y="280" width="340" height="18" rx="9" />
    <rect x="190" y="330" width="300" height="18" rx="9" />
  </g>
  <g fill="none" stroke="#1e293b" stroke-width="18" stroke-linecap="round" stroke-linejoin="round" opacity="0.8">
    <path d="M640 470h120v120H640z" />
    <path d="M530 350h120v120H530z" />
    <path d="M420 470h120v120H420z" />
  </g>
  <g fill="#334155" opacity="0.9">
    <path d="M540 220c0-44 32-78 74-78s74 34 74 78-32 78-74 78-74-34-74-78z" />
    <rect x="560" y="300" width="108" height="180" rx="52" />
    <path d="M614 360l-38 120h120l-38-120z" />
  </g>
  <g fill="#f8fafc" opacity="0.85">
    <path d="M270 450h120l32 120H238z" />
    <rect x="310" y="360" width="64" height="80" rx="24" />
  </g>
</svg>
